HIERARCHY
ROOT Hips
{
 OFFSET 0.000000 0.000000 0.000000
 CHANNELS 6 Xposition Yposition Zposition Yrotation Xrotation Zrotation
 JOINT Chest
 {
  OFFSET 0.000000 9.585900 0.002600
  CHANNELS 3 Yrotation Xrotation Zrotation
  JOINT Chest2
  {
   OFFSET 0.000000 9.601200 -0.005300
   CHANNELS 3 Yrotation Xrotation Zrotation
   JOINT Chest3
   {
    OFFSET 0.000000 9.561800 0.000000
    CHANNELS 3 Yrotation Xrotation Zrotation
    JOINT Chest4
    {
     OFFSET 0.000000 9.552100 0.000000
     CHANNELS 3 Yrotation Xrotation Zrotation
     JOINT Neck
     {
      OFFSET 0.000000 14.453000 0.000000
      CHANNELS 3 Yrotation Xrotation Zrotation
      JOINT Head
      {
       OFFSET 0.000000 8.936500 -0.011300
       CHANNELS 3 Yrotation Xrotation Zrotation
       End Site
       {
        OFFSET 0.000000 17.073600 -0.006000
       }
      }
     }
     JOINT RightCollar
     {
      OFFSET -2.921100 9.558500 0.000000
      CHANNELS 3 Yrotation Xrotation Zrotation
      JOINT RightShoulder
      {
       OFFSET -13.519700 0.000000 0.000000
       CHANNELS 3 Yrotation Xrotation Zrotation
       JOINT RightElbow
       {
        OFFSET 0.000000 -29.696600 0.000000
        CHANNELS 3 Yrotation Xrotation Zrotation
        JOINT RightWrist
        {
         OFFSET 0.000000 -24.004700 0.000000
         CHANNELS 3 Yrotation Xrotation Zrotation
         End Site
         {
          OFFSET 0.000000 -17.728500 0.000000
         }
        }
       }
      }
     }
     JOINT LeftCollar
     {
      OFFSET 2.921100 9.558500 0.000000
      CHANNELS 3 Yrotation Xrotation Zrotation
      JOINT LeftShoulder
      {
       OFFSET 13.519700 0.000000 0.000000
       CHANNELS 3 Yrotation Xrotation Zrotation
       JOINT LeftElbow
       {
        OFFSET 0.000000 -29.696600 0.000000
        CHANNELS 3 Yrotation Xrotation Zrotation
        JOINT LeftWrist
        {
         OFFSET 0.000000 -24.004700 0.000000
         CHANNELS 3 Yrotation Xrotation Zrotation
         End Site
         {
          OFFSET 0.000000 -17.728500 0.000000
         }
        }
       }
      }
     }
    }
   }
  }
 }
 JOINT RightHip
 {
  OFFSET -7.771700 -0.012900 -0.001300
  CHANNELS 3 Yrotation Xrotation Zrotation
  JOINT RightKnee
  {
   OFFSET 0.000000 -40.869800 0.001200
   CHANNELS 3 Yrotation Xrotation Zrotation
   JOINT RightAnkle
   {
    OFFSET 0.000000 -39.717900 0.002100
    CHANNELS 3 Yrotation Xrotation Zrotation
    JOINT RightToe
    {
     OFFSET 0.000000 -4.965400 11.033500
     CHANNELS 3 Yrotation Xrotation Zrotation
     End Site
     {
      OFFSET 0.000000 -1.423100 5.872300
     }
    }
   }
  }
 }
 JOINT LeftHip
 {
  OFFSET 7.771700 -0.012900 -0.001300
  CHANNELS 3 Yrotation Xrotation Zrotation
  JOINT LeftKnee
  {
   OFFSET 0.000000 -40.869800 0.001200
   CHANNELS 3 Yrotation Xrotation Zrotation
   JOINT LeftAnkle
   {
    OFFSET 0.000000 -39.717900 0.002100
    CHANNELS 3 Yrotation Xrotation Zrotation
    JOINT LeftToe
    {
     OFFSET 0.000000 -4.965400 11.033500
     CHANNELS 3 Yrotation Xrotation Zrotation
     End Site
     {
      OFFSET 0.000000 -1.423100 5.872300
     }
    }
   }
  }
 }
}
MOTION
Frames: 9
Frame Time: 0.008333
0.000000 85.388000 0.000000 0.000000 -5.767877 0.000000 0.000000 11.653817 0.000000 0.000000 -5.885947 0.000000 0.000000 -0.000000 0.000000 0.000000 -0.000000 0.000000 0.000000 12.528835 0.000000 0.000000 0.711642 0.000000 0.000000 -0.000000 0.000000 0.000000 0.000000 -90.000000 0.000000 -2.309062 0.000000 0.000000 2.309062 0.000000 0.000000 -0.000000 0.000000 0.000000 -0.000000 90.000000 0.000000 -2.309062 0.000000 0.000000 2.309062 0.000000 0.000000 8.520406 0.000000 0.000000 1.905762 0.000000 -0.000000 -4.658285 0.000000 0.000000 -0.000000 0.000000 0.000000 8.520406 0.000000 0.000000 1.905762 0.000000 -0.000000 -4.658285 0.000000 0.000000 -0.000000 0.000000
-64.902289 63.292662 12.668055 164.452323 -52.175828 -1.751175 7.162281 25.923018 4.675312 1.097487 4.463567 0.388173 1.747824 7.057073 0.669294 5.731084 21.214525 2.748537 3.236678 18.474875 3.165339 4.906531 -1.554504 4.810551 5.636945 7.104014 5.938896 0.272916 -12.304236 -14.360920 -88.258488 -58.279796 129.053339 8.814643 3.597973 -1.606454 -10.539950 3.679118 -0.057764 -4.514489 -8.782535 17.129173 104.980375 -70.745983 -134.746601 6.681136 -6.609236 -3.877150 -5.433843 -8.294041 8.348790 -27.480831 74.133074 -24.987632 1.815499 -13.092410 -2.784773 -0.292396 0.686835 -0.153578 -4.960224 -14.803133 -1.241392 12.726625 63.326874 6.410486 -1.993480 -9.110849 -0.189016 -0.291067 -0.634376 -0.132680
-64.901777 63.290908 12.666606 164.451469 -52.155333 -1.752054 7.169664 25.914388 4.670492 1.101505 4.467990 0.384276 1.749882 7.055684 0.667785 5.739706 21.212776 2.744171 3.360347 18.290384 3.227462 5.112056 -1.894124 4.880693 5.651859 7.113731 5.947515 0.268439 -12.261281 -14.375356 -88.267583 -58.269671 129.068779 8.800502 3.593519 -1.612605 -10.538638 3.679566 -0.043328 -4.507141 -8.795416 17.117647 104.981982 -70.763888 -134.767058 6.651028 -6.598302 -3.909361 -5.438360 -8.316725 8.341750 -27.457559 74.143581 -24.958787 1.825621 -13.092835 -2.780815 -0.302576 0.682398 -0.160561 -4.969811 -14.827604 -1.229497 12.719781 63.336943 6.391656 -2.002865 -9.108457 -0.189522 -0.280484 -0.641996 -0.127369
-64.901486 63.288876 12.664292 164.453518 -52.132404 -1.754599 7.169578 25.895580 4.667239 1.110751 4.484272 0.375932 1.749767 7.048344 0.666420 5.745837 21.209332 2.739583 3.487419 18.100877 3.286055 5.315530 -2.251981 4.943028 5.663397 7.118810 5.960903 0.258458 -12.247338 -14.380988 -88.206685 -58.269385 129.026083 8.790215 3.589680 -1.613453 -10.515456 3.691519 -0.042170 -4.508573 -8.825082 17.099710 104.947793 -70.796366 -134.755648 6.633310 -6.591997 -3.937235 -5.444287 -8.342108 8.333477 -27.427805 74.157108 -24.923665 1.832480 -13.093565 -2.770125 -0.310625 0.677258 -0.173640 -4.979256 -14.854584 -1.220964 12.718130 63.347713 6.381047 -2.010351 -9.108489 -0.187920 -0.285717 -0.648370 -0.127026
-64.901660 63.285988 12.661406 164.456396 -52.103641 -1.756766 7.179410 25.889468 4.657570 1.112098 4.486240 0.378404 1.752220 7.040071 0.661461 5.772528 21.222054 2.729049 3.597980 17.885351 3.358657 5.514236 -2.624300 4.994878 5.644131 7.087645 5.993419 0.259854 -12.220839 -14.395480 -88.158613 -58.270607 128.994750 8.785921 3.575711 -1.613802 -10.514300 3.683051 -0.020268 -4.530043 -8.844701 17.109286 104.912590 -70.801384 -134.727130 6.610653 -6.587360 -3.958417 -5.450128 -8.373987 8.322395 -27.413166 74.171746 -24.897469 1.841586 -13.098525 -2.774034 -0.315618 0.674373 -0.175417 -4.984812 -14.886601 -1.217327 12.709269 63.356658 6.369050 -2.004591 -9.113139 -0.185758 -0.282309 -0.648707 -0.126646
-64.902896 63.282924 12.657202 164.464958 -52.074474 -1.757773 7.183607 25.887331 4.645655 1.109329 4.481232 0.380145 1.758797 7.039032 0.658874 5.770684 21.210400 2.733507 3.716065 17.696291 3.399467 5.707462 -3.007609 5.035045 5.664804 7.097817 5.993520 0.240428 -12.175490 -14.418403 -88.200659 -58.262908 129.053331 8.789912 3.540860 -1.623924 -10.474286 3.692063 -0.052329 -4.580145 -8.860865 17.150278 104.874991 -70.797753 -134.693164 6.563307 -6.568143 -4.023837 -5.458022 -8.407178 8.304866 -27.413675 74.191817 -24.884036 1.847934 -13.110557 -2.782246 -0.316912 0.672656 -0.173072 -4.999819 -14.924765 -1.216635 12.713372 63.373262 6.363693 -2.009339 -9.106002 -0.190298 -0.283503 -0.658349 -0.122446
-64.902891 63.274897 12.656340 164.486630 -52.008244 -1.783828 7.195525 25.895508 4.643589 1.101851 4.444418 0.386885 1.760578 7.028653 0.656674 5.770380 21.193017 2.736617 3.829151 17.511688 3.438394 5.893305 -3.397038 5.065759 5.704907 7.104115 5.994631 0.196360 -12.095992 -14.474157 -88.354429 -58.212196 129.220247 8.771397 3.568417 -1.610810 -10.459791 3.681495 -0.060973 -4.590581 -8.869823 17.152897 104.792788 -70.805534 -134.617372 6.530315 -6.563037 -4.063361 -5.476816 -8.476384 8.311013 -27.425397 74.203684 -24.885654 1.859175 -13.126833 -2.786217 -0.321464 0.682002 -0.172790 -5.028855 -15.004720 -1.195337 12.720956 63.396179 6.359421 -2.008747 -9.110232 -0.190511 -0.281547 -0.657533 -0.120701
-64.902071 63.269508 12.652443 164.496285 -51.963711 -1.801854 7.205461 25.892183 4.648060 1.102542 4.443960 0.387399 1.759637 7.026042 0.656804 5.773137 21.190054 2.736308 3.935944 17.311501 3.473026 6.067949 -3.785961 5.089619 5.732291 7.068063 5.996130 0.158733 -12.035107 -14.515385 -88.441939 -58.178421 129.325267 8.772247 3.638362 -1.563042 -10.449701 3.642719 -0.061796 -4.590269 -8.873361 17.145746 104.757869 -70.827707 -134.603289 6.514180 -6.558199 -4.092204 -5.486346 -8.523134 8.317647 -27.419492 74.213777 -24.874744 1.872523 -13.129672 -2.783864 -0.338794 0.680869 -0.171062 -5.047363 -15.058397 -1.175709 12.729555 63.416238 6.357014 -2.006903 -9.112498 -0.188007 -0.282085 -0.659666 -0.120952
-64.901449 63.262850 12.648371 164.519462 -51.910998 -1.830060 7.205814 25.882114 4.650580 1.096370 4.410668 0.392613 1.769627 7.060399 0.652899 5.790665 21.229821 2.739618 4.020661 17.071213 3.504621 6.228732 -4.165996 5.106740 5.736108 6.974422 5.996324 0.130476 -11.987262 -14.548232 -88.471313 -58.169193 129.371998 8.772504 3.622774 -1.562205 -10.460312 3.555394 -0.045610 -4.600366 -8.868906 17.152210 104.749782 -70.837527 -134.598472 6.505486 -6.555324 -4.116789 -5.503750 -8.578871 8.323452 -27.420274 74.228731 -24.864657 1.878780 -13.134834 -2.789853 -0.342770 0.678692 -0.169887 -5.073279 -15.125872 -1.153466 12.734447 63.442573 6.351876 -2.011397 -9.104631 -0.186826 -0.279694 -0.674142 -0.118689
